<svg width="64" height="64" viewBox="0 0 64 64" fill="none" xmlns="http://www.w3.org/2000/svg">
<g clip-path="url(#clip0_1497_23107)">
<path d="M39.9641 0C39.2739 9.56624 35.0139 18.1434 28.5097 24.406C35.9123 18.8845 45.094 15.616 55.039 15.616C58.1084 15.616 61.105 15.9273 63.999 16.5201V39.7056C61.2585 38.4958 58.2272 37.824 55.039 37.824C42.7739 37.824 32.831 47.7669 32.831 60.032C32.831 61.3864 32.9523 62.7125 33.1845 64H10.7979C10.6821 62.6928 10.623 61.3693 10.623 60.032C10.623 47.2972 15.9825 35.8142 24.5689 27.7155C18.3414 32.2612 10.6675 34.944 2.36704 34.944C1.57171 34.944 0.782129 34.9194 -0.000976562 34.8709V15.9487C0.774691 16.0459 1.56502 16.096 2.36704 16.096C11.8417 16.096 19.6836 9.10501 21.0156 0H39.9641Z" fill="#334155"/>
</g>
<defs>
<clipPath id="clip0_1497_23107">
<rect width="64" height="64" fill="white"/>
</clipPath>
</defs>
</svg>
