<svg width="64" height="64" viewBox="0 0 64 64" fill="none" xmlns="http://www.w3.org/2000/svg">
<g clip-path="url(#clip0_1497_23081)">
<path fill-rule="evenodd" clip-rule="evenodd" d="M39.9651 0C39.2749 9.56624 35.0149 18.1434 28.5106 24.406C35.9133 18.8845 45.0949 15.616 55.04 15.616C58.1093 15.616 61.106 15.9273 64 16.5202V0L39.9651 0ZM21.0165 0C19.6845 9.10501 11.8427 16.096 2.368 16.096C1.56598 16.096 0.775661 16.0459 0 15.9487V0H21.0165ZM0 34.8708V64H10.7988C10.6831 62.6928 10.624 61.3693 10.624 60.032C10.624 47.2972 15.9834 35.8142 24.5698 27.7155C18.3424 32.2612 10.6685 34.944 2.368 34.944C1.57267 34.944 0.7831 34.9194 0 34.8708ZM64 39.7057V64H33.1855C32.9532 62.7125 32.832 61.3864 32.832 60.032C32.832 47.7669 42.7749 37.824 55.04 37.824C58.2282 37.824 61.2595 38.4958 64 39.7057Z" fill="#334155"/>
</g>
<defs>
<clipPath id="clip0_1497_23081">
<rect width="64" height="64" fill="white"/>
</clipPath>
</defs>
</svg>
