<svg width="64" height="64" viewBox="0 0 64 64" fill="none" xmlns="http://www.w3.org/2000/svg">
<path d="M11.4103 32.2297C8.48115 28.0465 9.49779 22.2809 13.681 19.3518L38.9288 1.67302C43.112 -1.25609 48.8777 -0.239449 51.8068 3.94375C54.7359 8.12696 53.7193 13.8926 49.5361 16.8217L24.2882 34.5005C20.105 37.4296 14.3394 36.4129 11.4103 32.2297Z" fill="#334155"/>
<path d="M11.0058 60.0563C8.07667 55.8731 9.09332 50.1074 13.2765 47.1783L38.5244 29.4996C42.7076 26.5704 48.4732 27.5871 51.4023 31.7703C54.3314 35.9535 53.3148 41.7192 49.1316 44.6483L23.8838 62.327C19.7006 65.2561 13.9349 64.2395 11.0058 60.0563Z" fill="#334155"/>
</svg>
