<svg width="116" height="32" viewBox="0 0 116 32" fill="none" xmlns="http://www.w3.org/2000/svg">
<g clip-path="url(#clip0_2210_19832)">
<path fill-rule="evenodd" clip-rule="evenodd" d="M19.9825 0C19.6374 4.7831 17.5074 9.07165 14.2553 12.2029C17.9566 9.44222 22.5474 7.80796 27.5199 7.80796C29.0546 7.80796 30.553 7.96363 32 8.26004V19.8528C30.6297 19.2479 29.1141 18.912 27.5199 18.912C21.3874 18.912 16.4159 23.8834 16.4159 30.016C16.4159 30.6932 16.4766 31.3562 16.5927 32H5.39936C5.34149 31.3464 5.31194 30.6846 5.31194 30.016C5.31194 23.6486 7.99165 17.9071 12.2848 13.8577C9.17111 16.1306 5.33417 17.472 1.18394 17.472C0.786295 17.472 0.391529 17.4596 0 17.4354V7.97431C0.38781 8.02291 0.782949 8.04796 1.18394 8.04796C5.92126 8.04796 9.84217 4.55248 10.5082 0H19.9825Z" fill="#334155"/>
</g>
<path d="M48 6.53917H49.7973C49.8164 7.28486 50.4283 8.48944 52.3403 8.48944C54.2141 8.48944 54.7304 7.74375 54.7304 7.11278C54.7304 6.23324 53.9082 5.96555 51.6711 5.73611C49.109 5.46842 48.3059 4.30208 48.3059 3.02102C48.3059 1.54875 49.6444 0 52.3212 0C54.7877 0 56.1262 1.41491 56.26 3.25046H54.4627C54.4053 2.61949 53.9847 1.60611 52.2638 1.60611C50.7151 1.60611 50.1415 2.23708 50.1415 2.88718C50.1415 3.51815 50.5048 3.9388 52.6271 4.16824C55.2657 4.45505 56.5659 5.21986 56.5659 6.82597C56.5659 8.81449 54.9407 10.0956 52.2638 10.0956C49.6061 10.0956 48.0956 8.69977 48 6.53917Z" fill="#334155"/>
<path d="M57.2106 7.20838C57.2106 4.9713 58.855 4.28296 60.7288 4.14912C62.4879 4.01528 64.2661 4.2256 64.2469 3.21222C64.2278 2.40917 63.7689 1.60611 61.7613 1.60611C60.0405 1.60611 59.4477 2.2562 59.3139 3.21222H57.5166C57.8607 0.975139 59.5816 0 61.8378 0C64.0366 0 66.0825 0.764815 66.0825 4.35944V9.94259H64.2469V9.00569C64.2469 8.64241 64.2852 8.3556 64.4573 7.85847C64.4955 7.68639 64.572 7.53342 64.4381 7.47606C64.2852 7.4187 64.2469 7.57167 64.2087 7.66727C63.6542 9.12042 62.354 10.0956 60.5758 10.0956C58.7211 10.0956 57.2106 8.87185 57.2106 7.20838ZM64.2469 4.66537C63.6542 5.39194 62.3349 5.41106 60.8435 5.62139C59.658 5.79347 59.0462 6.21412 59.0462 7.11278C59.0462 7.89671 59.6963 8.62329 61.2833 8.41296C62.7747 8.22176 64.2278 7.1319 64.2469 4.66537Z" fill="#334155"/>
<path d="M67.1868 7.20838C67.1868 4.9713 68.8312 4.28296 70.705 4.14912C72.4641 4.01528 74.2423 4.2256 74.2231 3.21222C74.204 2.40917 73.7451 1.60611 71.7375 1.60611C70.0167 1.60611 69.4239 2.2562 69.2901 3.21222H67.4928C67.8369 0.975139 69.5578 0 71.814 0C74.0128 0 76.0587 0.764815 76.0587 4.35944V9.94259H74.2231V9.00569C74.2231 8.64241 74.2614 8.3556 74.4335 7.85847C74.4717 7.68639 74.5482 7.53342 74.4143 7.47606C74.2614 7.4187 74.2231 7.57167 74.1849 7.66727C73.6304 9.12042 72.3302 10.0956 70.552 10.0956C68.6973 10.0956 67.1868 8.87185 67.1868 7.20838ZM74.2231 4.66537C73.6304 5.39194 72.3111 5.41106 70.8197 5.62139C69.6342 5.79347 69.0224 6.21412 69.0224 7.11278C69.0224 7.89671 69.6725 8.62329 71.2595 8.41296C72.7509 8.22176 74.204 7.1319 74.2231 4.66537Z" fill="#334155"/>
<path d="M77.0137 6.53917H78.811C78.8301 7.28486 79.4419 8.48944 81.354 8.48944C83.2278 8.48944 83.744 7.74375 83.744 7.11278C83.744 6.23324 82.9219 5.96555 80.6848 5.73611C78.1226 5.46842 77.3196 4.30208 77.3196 3.02102C77.3196 1.54875 78.658 0 81.3349 0C83.8014 0 85.1398 1.41491 85.2737 3.25046H83.4763C83.419 2.61949 82.9983 1.60611 81.2775 1.60611C79.7288 1.60611 79.1551 2.23708 79.1551 2.88718C79.1551 3.51815 79.5184 3.9388 81.6408 4.16824C84.2794 4.45505 85.5796 5.21986 85.5796 6.82597C85.5796 8.81449 83.9544 10.0956 81.2775 10.0956C78.6198 10.0956 77.1093 8.69977 77.0137 6.53917Z" fill="#334155"/>
<path d="M48.6119 14.4093H50.4474V28.1759H48.6119V14.4093Z" fill="#334155"/>
<path d="M51.553 25.4417C51.553 23.2046 53.1973 22.5163 55.0711 22.3825C56.8302 22.2486 58.6084 22.4589 58.5892 21.4456C58.5701 20.6425 58.1112 19.8394 56.1036 19.8394C54.3828 19.8394 53.79 20.4895 53.6562 21.4456H51.8589C52.203 19.2085 53.9239 18.2333 56.1801 18.2333C58.3789 18.2333 60.4248 18.9982 60.4248 22.5928V28.1759H58.5892V27.239C58.5892 26.8757 58.6275 26.5889 58.7996 26.0918C58.8378 25.9197 58.9143 25.7668 58.7804 25.7094C58.6275 25.652 58.5892 25.805 58.551 25.9006C57.9965 27.3538 56.6963 28.3289 54.9181 28.3289C53.0635 28.3289 51.553 27.1052 51.553 25.4417ZM58.5892 22.8987C57.9965 23.6253 56.6772 23.6444 55.1858 23.8547C54.0004 24.0268 53.3885 24.4475 53.3885 25.3461C53.3885 26.1301 54.0386 26.8566 55.6256 26.6463C57.117 26.4551 58.5701 25.3652 58.5892 22.8987Z" fill="#334155"/>
<path d="M67.2306 18.2333C69.4868 18.2333 70.8635 19.4953 70.8635 22.3633V28.1759H69.0279V22.7457C69.0279 20.4704 68.0528 19.8394 66.7717 19.8394C65.3568 19.8394 63.8272 21.2735 63.8272 23.6062V28.1759H61.9916V18.3863H63.8272V19.0364C63.8272 19.4379 63.7889 19.8394 63.6169 20.3366C63.5595 20.5087 63.483 20.6999 63.636 20.7381C63.7507 20.7763 63.8081 20.6425 63.8463 20.566C64.2287 19.61 65.4715 18.2333 67.2306 18.2333Z" fill="#334155"/>
<path d="M79.4709 14.4093H81.3065V28.1759H79.4709V27.3538C79.4709 27.0096 79.5092 26.7419 79.6621 26.3213C79.7195 26.1683 79.8151 25.9962 79.6239 25.9388C79.5092 25.9006 79.4518 26.0536 79.4327 26.1109C78.9738 27.4876 77.6736 28.3289 76.144 28.3289C73.601 28.3289 71.8228 26.1874 71.8228 23.2811C71.8228 20.3748 73.601 18.2333 76.144 18.2333C77.7118 18.2333 78.9929 19.0938 79.4327 20.4131C79.4518 20.4704 79.5092 20.6616 79.6621 20.6043C79.8342 20.5469 79.7195 20.3557 79.6621 20.2027C79.5092 19.8012 79.4709 19.5144 79.4709 19.1511V14.4093ZM76.5264 26.6463C78.2663 26.6463 79.4709 25.0975 79.4709 23.2811C79.4709 21.4647 78.2663 19.9159 76.5264 19.9159C74.6144 19.9159 73.6583 21.4647 73.6583 23.2811C73.6583 25.0975 74.6144 26.6463 76.5264 26.6463Z" fill="#334155"/>
<path d="M82.9505 16.5507V14.4093H84.9391V16.5507H82.9505ZM83.027 28.1759V18.3863H84.8626V28.1759H83.027Z" fill="#334155"/>
<path d="M91.8189 18.2333C94.0751 18.2333 95.4518 19.4953 95.4518 22.3633V28.1759H93.6163V22.7457C93.6163 20.4704 92.6411 19.8394 91.3601 19.8394C89.9452 19.8394 88.4155 21.2735 88.4155 23.6062V28.1759H86.58V18.3863H88.4155V19.0364C88.4155 19.4379 88.3773 19.8394 88.2052 20.3366C88.1478 20.5087 88.0714 20.6999 88.2243 20.7381C88.339 20.7763 88.3964 20.6425 88.4346 20.566C88.817 19.61 90.0599 18.2333 91.8189 18.2333Z" fill="#334155"/>
<path d="M96.4111 23.2046C96.4111 20.2792 98.1893 18.2333 100.732 18.2333C102.3 18.2333 103.409 19.0746 104.021 20.3175C104.04 20.3748 104.117 20.566 104.231 20.5278C104.423 20.4704 104.289 20.2601 104.231 20.088C104.098 19.7438 104.059 19.4953 104.059 19.0364V18.3863H105.895V27.2964C105.895 30.4704 103.964 32 101.21 32C98.3232 32 96.8891 30.5277 96.717 28.7878H98.5526C98.6673 29.5717 99.088 30.5469 101.191 30.5469C103.046 30.5469 104.059 29.457 104.059 27.2964C104.059 26.8757 104.098 26.6081 104.231 26.283C104.308 26.1109 104.403 25.9388 104.231 25.8815C104.098 25.8432 104.04 25.9962 104.021 26.0536C103.39 27.3729 102.262 28.1759 100.732 28.1759C98.1893 28.1759 96.4111 26.1301 96.4111 23.2046ZM101.153 26.4933C102.893 26.4933 104.059 25.0593 104.059 23.2046C104.059 21.35 102.893 19.9159 101.153 19.9159C99.2601 19.9159 98.2467 21.35 98.2467 23.2046C98.2467 25.0593 99.2601 26.4933 101.153 26.4933Z" fill="#334155"/>
<path d="M107.003 24.7725H108.801C108.82 25.5182 109.432 26.7228 111.344 26.7228C113.218 26.7228 113.734 25.9771 113.734 25.3461C113.734 24.4666 112.912 24.1989 110.675 23.9694C108.112 23.7018 107.309 22.5354 107.309 21.2544C107.309 19.7821 108.648 18.2333 111.325 18.2333C113.791 18.2333 115.13 19.6482 115.263 21.4838H113.466C113.409 20.8528 112.988 19.8394 111.267 19.8394C109.719 19.8394 109.145 20.4704 109.145 21.1205C109.145 21.7515 109.508 22.1721 111.631 22.4016C114.269 22.6884 115.569 23.4532 115.569 25.0593C115.569 27.0478 113.944 28.3289 111.267 28.3289C108.61 28.3289 107.099 26.9331 107.003 24.7725Z" fill="#334155"/>
<defs>
<clipPath id="clip0_2210_19832">
<rect width="32" height="32" fill="white"/>
</clipPath>
</defs>
</svg>
