<svg width="64" height="64" viewBox="0 0 64 64" fill="none" xmlns="http://www.w3.org/2000/svg">
<g clip-path="url(#clip0_1497_23094)">
<path fill-rule="evenodd" clip-rule="evenodd" d="M32 0C27.7977 0 23.6366 0.827704 19.7542 2.43586C15.8717 4.04401 12.3441 6.40111 9.37262 9.37259C6.40115 12.3441 4.04404 15.8717 2.43589 19.7541C0.827742 23.6366 3.8147e-05 27.7977 3.8147e-05 32L9.53674e-07 32L0 64C4.2023 64 8.36345 63.1723 12.2459 61.5642C16.1283 59.956 19.6559 57.5989 22.6274 54.6274C25.5989 51.656 27.956 48.1283 29.5641 44.2459C31.1723 40.3635 32 36.2023 32 32L32 32C36.2023 32 40.3635 31.1723 44.2459 29.5642C48.1283 27.956 51.656 25.5989 54.6275 22.6274C57.5989 19.656 59.956 16.1283 61.5642 12.2459C63.1723 8.36346 64 4.20231 64 6.67572e-06L32 0ZM51.7542 34.4359C55.6366 32.8277 59.7977 32 64 32V64H32C32 59.7977 32.8277 55.6366 34.4359 51.7542C36.044 47.8717 38.4011 44.3441 41.3726 41.3726C44.3441 38.4011 47.8717 36.044 51.7542 34.4359Z" fill="#334155"/>
</g>
<defs>
<clipPath id="clip0_1497_23094">
<rect width="64" height="64" fill="white"/>
</clipPath>
</defs>
</svg>
