<svg width="64" height="64" viewBox="0 0 64 64" fill="none" xmlns="http://www.w3.org/2000/svg">
<g clip-path="url(#clip0_1497_23119)">
<path d="M26.8387 5.1613C26.8387 2.31079 29.1495 0 32 0C34.8505 0 37.1613 2.31079 37.1613 5.16129V32C37.1613 34.8505 34.8505 37.1613 32 37.1613C29.1495 37.1613 26.8387 34.8505 26.8387 32V5.1613Z" fill="#334155"/>
<path d="M47.3282 9.3726C49.3438 7.35699 52.6118 7.35699 54.6274 9.3726C56.643 11.3882 56.643 14.6562 54.6274 16.6718L43.6787 27.6205C41.663 29.6361 38.3951 29.6361 36.3795 27.6205C34.3639 25.6049 34.3639 22.337 36.3795 20.3214L47.3282 9.3726Z" fill="#334155"/>
<path d="M58.8387 26.8387C61.6892 26.8387 64 29.1495 64 32C64 34.8505 61.6892 37.1613 58.8387 37.1613H43.3548C40.5043 37.1613 38.1936 34.8505 38.1936 32C38.1936 29.1495 40.5043 26.8387 43.3548 26.8387H58.8387Z" fill="#334155"/>
<path d="M5.16129 37.1613C2.31079 37.1613 0 34.8505 0 32C0 29.1495 2.31079 26.8387 5.16129 26.8387L58.8387 26.8387C61.6892 26.8387 64 29.1495 64 32C64 34.8505 61.6892 37.1613 58.8387 37.1613H5.16129Z" fill="#334155"/>
<path d="M9.37237 16.6718C7.35676 14.6562 7.35676 11.3882 9.37237 9.3726C11.388 7.35699 14.6559 7.35699 16.6715 9.3726L27.6203 20.3214C29.6359 22.337 29.6359 25.6049 27.6203 27.6205C25.6047 29.6361 22.3367 29.6361 20.3211 27.6205L9.37237 16.6718Z" fill="#334155"/>
<path d="M26.8387 58.8387C26.8387 61.6892 29.1495 64 32 64C34.8505 64 37.1613 61.6892 37.1613 58.8387V32C37.1613 29.1495 34.8505 26.8387 32 26.8387C29.1495 26.8387 26.8387 29.1495 26.8387 32V58.8387Z" fill="#334155"/>
<path d="M47.3282 54.6274C49.3438 56.643 52.6118 56.6431 54.6274 54.6274C56.643 52.6118 56.643 49.3439 54.6274 47.3283L43.6787 36.3795C41.663 34.3639 38.3951 34.3639 36.3795 36.3795C34.3639 38.3951 34.3639 41.6631 36.3795 43.6787L47.3282 54.6274Z" fill="#334155"/>
<path d="M58.8387 37.1613C61.6892 37.1613 64 34.8505 64 32C64 29.1495 61.6892 26.8387 58.8387 26.8387H43.3548C40.5043 26.8387 38.1936 29.1495 38.1936 32C38.1936 34.8505 40.5043 37.1613 43.3548 37.1613H58.8387Z" fill="#334155"/>
<path d="M5.16129 26.8387C2.31079 26.8387 0 29.1495 0 32C0 34.8505 2.31079 37.1613 5.16129 37.1613H58.8387C61.6892 37.1613 64 34.8505 64 32C64 29.1495 61.6892 26.8387 58.8387 26.8387L5.16129 26.8387Z" fill="#334155"/>
<path d="M9.37237 47.3283C7.35676 49.3439 7.35676 52.6118 9.37237 54.6274C11.388 56.6431 14.6559 56.6431 16.6715 54.6274L27.6203 43.6787C29.6359 41.6631 29.6359 38.3951 27.6203 36.3795C25.6047 34.3639 22.3367 34.3639 20.3211 36.3795L9.37237 47.3283Z" fill="#334155"/>
</g>
<defs>
<clipPath id="clip0_1497_23119">
<rect width="64" height="64" fill="white"/>
</clipPath>
</defs>
</svg>
