<svg viewBox="0 0 64 64" fill="none" xmlns="http://www.w3.org/2000/svg">
<g clip-path="url(#clip0_1497_23079)">
<path fill-rule="evenodd" clip-rule="evenodd" d="M48.2037 5.83949C48.4882 11.2304 52.7933 15.552 58.1669 15.8433C58.3566 15.8225 58.5492 15.8118 58.7444 15.8118C61.6467 15.8118 63.9995 18.1715 63.9995 21.0824C63.9995 23.9928 61.6475 26.3522 58.7459 26.353V26.4472C55.4477 26.4472 52.3262 25.6887 49.5452 24.3363C55.3266 32.1595 58.7459 41.844 58.7459 52.3295H58.7434C58.693 58.7837 53.4607 64.0002 47.0136 64.0002C40.5352 64.0002 35.2834 58.7329 35.2834 52.2354C35.2834 52.187 35.2837 52.1386 35.2843 52.0902C35.1562 39.2055 24.7022 28.8001 11.825 28.8001V28.7997C11.7933 28.7999 11.7615 28.8001 11.7297 28.8001C5.2513 28.8001 -0.000488281 23.5328 -0.000488281 17.0353C-0.000488281 10.5379 5.2513 5.27063 11.7297 5.27063C11.7615 5.27063 11.7933 5.27076 11.825 5.27101V5.27067C22.2798 5.27067 31.9359 8.70005 39.7362 14.4984C38.3877 11.7092 37.6315 8.57851 37.6315 5.27067H37.7236C37.7236 5.27065 37.7236 5.27062 37.7236 5.27059C37.7236 2.35972 40.0765 0 42.9788 0C45.8811 0 48.2339 2.35972 48.2339 5.27059C48.2339 5.4628 48.2236 5.65261 48.2037 5.83949Z" fill="#334155"/>
</g>
<defs>
<clipPath id="clip0_1497_23079">
<rect width="64" height="64" fill="white"/>
</clipPath>
</defs>
</svg>
